<?xml version="1.0" encoding="utf-8"?>
<!-- Generator: Adobe Illustrator 20.0.0, SVG Export Plug-In . SVG Version: 6.00 Build 0)  -->
<svg version="1.1" id="Layer_1" xmlns="http://www.w3.org/2000/svg" xmlns:xlink="http://www.w3.org/1999/xlink" x="0px" y="0px"
	 viewBox="0 0 200 94" style="enable-background:new 0 0 200 94;" xml:space="preserve">
<style type="text/css">
	.st0{fill:#00AEEF;}
	.st1{fill:#A7A9AC;}
</style>
<g>
	<g>
		<path class="st0" d="M97.9,43.2H99v3.3h1.4v-3.3h1.1v7.6h-1.1v-3.4H99v3.4h-1.1V43.2z"/>
		<path class="st0" d="M104.8,43.2h0.9l1.7,7.6h-1.1l-0.3-1.6h-1.5l-0.3,1.6h-1.1L104.8,43.2z M105.2,45.4L105.2,45.4l-0.6,2.8h1.1
			L105.2,45.4z"/>
		<path class="st0" d="M109,43.2h1.1v3.5h0l1.6-3.5h1.1l-1.5,3.1l1.8,4.6h-1.2l-1.2-3.4l-0.6,1.1v2.3H109V43.2z"/>
		<path class="st0" d="M114.7,43.2h1.1v7.6h-1.1V43.2z"/>
	</g>
	<g>
		<path class="st1" d="M83.2,45c0-0.3,0.1-0.6,0.2-0.8s0.2-0.4,0.4-0.6c0.2-0.2,0.4-0.3,0.6-0.3c0.2-0.1,0.4-0.1,0.7-0.1
			c0.2,0,0.4,0,0.7,0.1c0.2,0.1,0.4,0.2,0.6,0.3c0.2,0.2,0.3,0.3,0.4,0.6s0.2,0.5,0.2,0.8v0.4h-1.1V45c0-0.3-0.1-0.5-0.2-0.6
			c-0.1-0.1-0.3-0.2-0.5-0.2c-0.2,0-0.4,0.1-0.5,0.2c-0.1,0.1-0.2,0.3-0.2,0.6v4c0,0.3,0.1,0.5,0.2,0.6c0.1,0.1,0.3,0.2,0.5,0.2
			c0.2,0,0.4-0.1,0.5-0.2c0.1-0.1,0.2-0.3,0.2-0.6v-1.4H85v-1h2v2.4c0,0.3-0.1,0.6-0.2,0.8s-0.2,0.4-0.4,0.6
			c-0.2,0.2-0.4,0.3-0.6,0.3c-0.2,0.1-0.4,0.1-0.7,0.1c-0.2,0-0.4,0-0.7-0.1c-0.2-0.1-0.4-0.2-0.6-0.3c-0.2-0.2-0.3-0.3-0.4-0.6
			s-0.2-0.5-0.2-0.8V45z"/>
		<path class="st1" d="M89,43.2h1.1v7.6H89V43.2z"/>
		<path class="st1" d="M92.9,44.3h-1.3v-1h3.6v1H94v6.6h-1.1V44.3z"/>
	</g>
	<path class="st1" d="M105.8,42.3L105.8,42.3L105.8,42.3c0-1.4,1.1-2.5,2.4-2.5h9.7c1.3,0,2.4,1.1,2.4,2.4v9.4
		c0,1.3-1.1,2.4-2.4,2.4h-9.7c-1.3,0-2.4-1.1-2.4-2.4h-4.7v0.9c0,3.5,2.8,6.3,6.3,6.3h11.3c3.5,0,6.3-2.8,6.3-6.3V41.3
		c0-3.5-2.8-6.3-6.3-6.3h-11.3c-3.5,0-6.3,2.8-6.3,6.3v1H105.8z"/>
	<path class="st0" d="M93.3,51.5L93.3,51.5L93.3,51.5c0,1.4-1.1,2.5-2.4,2.5h-9.7c-1.3,0-2.4-1.1-2.4-2.4v-9.4
		c0-1.3,1.1-2.4,2.4-2.4H91c1.3,0,2.4,1.1,2.4,2.4H98v-0.9c0-3.5-2.8-6.3-6.3-6.3H80.4c-3.5,0-6.3,2.8-6.3,6.3v11.2
		c0,3.5,2.8,6.3,6.3,6.3h11.3c3.5,0,6.3-2.8,6.3-6.3v-1H93.3z"/>
</g>
</svg>
