<?xml version="1.0" encoding="utf-8"?>
<!-- Generator: Adobe Illustrator 20.0.0, SVG Export Plug-In . SVG Version: 6.00 Build 0)  -->
<svg version="1.1" id="Layer_1" xmlns="http://www.w3.org/2000/svg" xmlns:xlink="http://www.w3.org/1999/xlink" x="0px" y="0px"
	 viewBox="0 0 80 40" style="enable-background:new 0 0 80 40;" xml:space="preserve">
<style type="text/css">
	.st0{fill:#00AEEF;}
	.st1{fill:#A7A9AC;}
</style>
<g>
	<g>
		<path class="st0" d="M37.8,15.1h1.5v4.4h1.9v-4.4h1.5v10.1h-1.5v-4.5h-1.9v4.5h-1.5V15.1z"/>
		<path class="st0" d="M47,15.1h1.2l2.3,10.1h-1.5L48.5,23h-2l-0.4,2.1h-1.5L47,15.1z M47.5,18L47.5,18l-0.8,3.7h1.5L47.5,18z"/>
		<path class="st0" d="M52.5,15.1H54v4.6l0,0l2.1-4.6h1.5l-2,4.1l2.4,6.1h-1.6l-1.6-4.5L54,22.3v3h-1.5V15.1z"/>
		<path class="st0" d="M60.1,15.1h1.5v10.1h-1.5V15.1z"/>
	</g>
	<g>
		<path class="st1" d="M18.3,17.5c0-0.4,0.1-0.8,0.3-1.1c0.1-0.3,0.3-0.5,0.5-0.8c0.3-0.3,0.5-0.4,0.8-0.4c0.3-0.1,0.5-0.1,0.9-0.1
			c0.3,0,0.5,0,0.9,0.1c0.3,0.1,0.5,0.3,0.8,0.4c0.3,0.3,0.4,0.4,0.5,0.8s0.3,0.7,0.3,1.1V18h-1.5v-0.5c0-0.4-0.1-0.7-0.3-0.8
			s-0.4-0.3-0.7-0.3c-0.3,0-0.5,0.1-0.7,0.3c-0.1,0.1-0.3,0.4-0.3,0.8v5.3c0,0.4,0.1,0.7,0.3,0.8s0.4,0.3,0.7,0.3
			c0.3,0,0.5-0.1,0.7-0.3c0.1-0.1,0.3-0.4,0.3-0.8v-1.9h-1.2v-1.3h2.6v3.2c0,0.4-0.1,0.8-0.3,1.1s-0.3,0.5-0.5,0.8
			c-0.3,0.3-0.5,0.4-0.8,0.4c-0.3,0.1-0.5,0.1-0.9,0.1c-0.3,0-0.5,0-0.9-0.1c-0.3-0.1-0.5-0.3-0.8-0.4c-0.3-0.3-0.4-0.4-0.5-0.8
			c-0.1-0.4-0.3-0.7-0.3-1.1L18.3,17.5L18.3,17.5z"/>
		<path class="st1" d="M26,15.1h1.5v10.1H26V15.1z"/>
		<path class="st1" d="M31.2,16.6h-1.7v-1.3h4.8v1.3h-1.6v8.7h-1.5V16.6z"/>
	</g>
	<path class="st1" d="M48.3,13.9L48.3,13.9L48.3,13.9c0-1.9,1.5-3.3,3.2-3.3h12.8c1.7,0,3.2,1.5,3.2,3.2v12.4c0,1.7-1.5,3.2-3.2,3.2
		H51.5c-1.7,0-3.2-1.5-3.2-3.2h-6.2v1.2c0,4.6,3.7,8.3,8.3,8.3h15c4.6,0,8.3-3.7,8.3-8.3V12.6c0-4.6-3.7-8.3-8.3-8.3h-15
		c-4.6,0-8.3,3.7-8.3,8.3v1.3H48.3z"/>
	<path class="st0" d="M31.7,26.1L31.7,26.1L31.7,26.1c0,1.9-1.5,3.3-3.2,3.3H15.7c-1.7,0-3.2-1.5-3.2-3.2V13.8
		c0-1.7,1.5-3.2,3.2-3.2h13c1.7,0,3.2,1.5,3.2,3.2h6.1v-1.2c0-4.6-3.7-8.3-8.3-8.3h-15c-4.6,0-8.3,3.7-8.3,8.3v14.8
		c0,4.6,3.7,8.3,8.3,8.3h15c4.6,0,8.3-3.7,8.3-8.3v-1.3C37.9,26.1,31.7,26.1,31.7,26.1z"/>
</g>
</svg>
